<?xml version="1.0" standalone="no"?>
<!DOCTYPE svg PUBLIC "-//W3C//DTD SVG 20010904//EN"
 "http://www.w3.org/TR/2001/REC-SVG-20010904/DTD/svg10.dtd">
<svg version="1.0" xmlns="http://www.w3.org/2000/svg"
 width="1600.000000pt" height="669.000000pt" viewBox="0 0 1600.000000 669.000000"
 preserveAspectRatio="xMidYMid meet">

<g transform="translate(0.000000,669.000000) scale(0.100000,-0.100000)"
fill="#000000" stroke="none">
<path d="M11030 5800 c-74 -4 -148 -12 -165 -17 -54 -19 -84 -36 -79 -45 3 -4
9 -6 14 -3 19 12 282 21 299 11 9 -6 5 -20 -14 -52 -97 -165 -129 -264 -123
-379 3 -58 2 -60 -22 -59 -28 1 -106 15 -190 35 -62 14 -121 7 -145 -18 -11
-10 -16 -31 -15 -57 3 -77 0 -107 -10 -101 -5 3 -10 -1 -10 -10 0 -9 -21 8
-51 42 -28 32 -55 60 -60 61 -40 15 45 213 145 335 23 29 56 73 74 99 18 26
42 54 54 63 13 8 18 15 12 15 -6 0 -36 -23 -68 -51 -50 -45 -79 -87 -160 -222
-31 -53 -76 -169 -83 -214 -3 -24 -8 -43 -11 -43 -3 0 -20 11 -38 25 -18 14
-42 25 -54 25 -17 0 -19 -4 -14 -27 10 -44 52 -115 110 -189 29 -38 59 -78 65
-89 11 -17 10 -18 -3 -8 -8 7 -18 10 -22 6 -4 -4 -4 1 0 11 5 14 4 17 -4 12
-7 -4 -12 -2 -12 4 0 24 -81 -42 -113 -92 -15 -24 -16 -37 -7 -93 6 -37 8 -88
4 -116 -4 -27 -3 -49 2 -49 5 0 23 -14 41 -30 21 -20 47 -32 75 -36 83 -11
242 48 323 120 37 33 37 32 0 119 -6 15 -1 17 45 17 66 0 158 24 235 60 33 16
60 28 61 27 1 -1 32 -110 69 -242 37 -132 74 -257 81 -277 15 -43 12 -44 -49
-27 -76 21 -418 89 -500 99 -46 5 -146 10 -223 11 -117 0 -149 -3 -204 -21
-114 -38 -164 -73 -227 -158 -15 -20 -34 -41 -41 -45 -21 -14 -78 -137 -108
-232 -15 -50 -29 -92 -30 -94 -2 -2 -13 4 -24 14 -11 10 -23 16 -26 13 -3 -3
6 -14 19 -25 25 -19 25 -20 20 -146 -3 -70 -10 -127 -14 -127 -5 0 -9 -18 -9
-40 0 -23 -7 -52 -16 -65 -9 -14 -14 -32 -10 -40 5 -15 -8 -20 -48 -15 -16 1
-14 -3 10 -22 16 -13 40 -29 54 -36 14 -6 33 -16 43 -22 9 -5 25 -14 34 -18 9
-5 18 -14 19 -20 1 -7 0 -8 -3 -2 -2 5 -8 8 -12 5 -5 -2 -34 0 -67 5 -32 5
-61 6 -64 1 -3 -4 -26 -7 -53 -6 -41 2 -45 1 -30 -11 10 -7 23 -14 29 -14 6 0
41 -16 77 -35 36 -19 78 -35 92 -35 14 0 42 -7 61 -15 20 -8 40 -12 45 -9 10
6 11 -11 3 -44 l-6 -22 -23 24 c-21 23 -30 24 -181 30 -87 4 -195 8 -239 11
-51 2 -74 0 -65 -5 8 -6 29 -10 45 -10 64 0 197 -30 225 -50 17 -12 49 -23 73
-25 45 -3 97 -23 97 -37 0 -5 11 -6 25 -4 40 7 30 -19 -17 -48 -24 -13 -62
-34 -86 -46 -27 -13 -42 -26 -39 -34 4 -9 -1 -12 -13 -9 -10 3 -26 -4 -36 -15
-49 -51 -318 -99 -572 -102 -43 0 -13 -18 43 -25 57 -7 79 -25 56 -48 -20 -20
-12 -22 69 -22 44 0 80 4 80 9 0 4 7 5 16 2 9 -3 28 2 42 13 46 32 158 62 329
88 32 5 33 4 27 -25 -6 -29 -4 -31 27 -34 28 -2 36 2 47 22 10 21 11 11 7 -69
-3 -52 -5 -140 -5 -195 l0 -101 -72 -78 c-116 -128 -254 -215 -380 -241 l-63
-13 110 -9 c161 -12 167 -11 259 59 89 67 127 103 118 111 -3 3 0 6 6 6 5 0
17 3 26 6 11 4 16 0 16 -14 0 -39 62 -228 97 -294 l35 -68 -26 -54 c-51 -104
-156 -187 -296 -232 -70 -23 -85 -35 -29 -23 96 20 188 73 271 155 31 31 64
72 74 90 10 19 21 33 25 32 3 -2 29 -30 56 -64 213 -257 658 -470 1314 -628
363 -88 635 -123 888 -113 353 14 561 93 751 286 122 123 194 247 260 449 72
220 119 509 127 777 l6 180 -28 33 c-28 33 -112 88 -121 80 -2 -3 9 -11 25
-18 16 -6 32 -18 35 -26 3 -7 6 -67 7 -133 1 -83 5 -124 14 -131 14 -12 13
-36 -16 -250 -79 -586 -246 -875 -554 -955 -39 -10 -105 -16 -185 -16 -108 0
-137 3 -204 25 -43 14 -85 26 -92 26 -28 0 -110 33 -131 53 -13 11 -23 31 -23
43 0 24 64 91 82 86 6 -2 14 1 17 5 11 15 90 63 104 63 7 0 19 9 27 20 8 11
20 20 27 20 7 0 13 9 13 19 0 12 9 21 26 25 36 9 62 35 45 46 -10 6 -10 9 -1
15 6 4 9 13 6 21 -3 7 0 16 6 20 7 4 6 10 -3 16 -10 7 -8 8 8 5 26 -6 42 11
23 23 -13 8 -6 42 14 62 20 22 48 120 36 132 -13 13 -13 29 0 21 6 -3 10 3 10
14 0 12 4 21 9 21 5 0 10 43 10 96 0 52 4 101 10 108 7 9 7 16 -1 24 -7 7 -8
12 -2 12 5 0 8 18 6 40 -3 32 -1 40 12 40 24 0 24 235 0 261 -12 13 -13 25 -6
52 5 19 7 39 3 45 -6 10 -180 60 -425 123 -49 13 -85 24 -79 26 5 2 77 -14
159 -36 335 -89 555 -143 561 -137 4 3 2 57 -4 119 -6 61 -9 113 -8 115 2 2
27 -4 56 -12 73 -22 85 -19 19 5 -30 11 -64 18 -75 15 -11 -3 -87 15 -170 39
-82 24 -143 44 -135 44 14 1 233 -59 275 -75 12 -5 16 -4 12 4 -4 6 -22 14
-40 17 -17 4 -57 15 -87 25 -30 10 -85 26 -123 36 -37 9 -65 19 -63 21 4 4
157 -35 321 -83 50 -14 108 -30 130 -35 22 -6 48 -15 58 -20 11 -6 21 -9 23
-6 10 10 25 228 19 277 -4 30 -8 69 -10 86 -7 69 -77 235 -117 278 -126 134
-227 207 -369 270 l-57 25 -22 -67 c-11 -37 -39 -117 -61 -179 l-41 -111 -34
20 c-19 11 -34 25 -34 31 0 7 -38 29 -85 51 -84 38 -84 38 -69 62 13 19 14 29
4 60 -20 61 -9 146 26 189 76 95 82 105 89 161 8 66 25 56 25 -14 0 -50 -23
-102 -46 -102 -9 0 -12 -5 -8 -12 4 -7 4 -10 0 -6 -9 8 -48 -28 -66 -61 -11
-22 -7 -111 7 -148 11 -29 23 1 23 58 0 69 9 91 54 134 54 53 60 65 72 163 17
130 31 204 42 211 5 3 12 20 16 36 4 18 30 52 63 83 45 42 62 52 91 52 21 0
40 -7 48 -17 12 -17 16 -16 67 10 37 19 60 40 75 66 29 51 30 76 1 61 -11 -6
-28 -9 -37 -7 -15 4 -15 5 1 6 29 2 86 50 112 96 51 86 27 180 -72 278 -59 60
-123 97 -188 109 -35 6 -33 7 12 3 29 -2 55 0 58 6 4 5 12 9 18 9 7 0 6 -4 -3
-10 -16 -10 -15 -11 38 -15 42 -4 41 8 -5 36 -29 17 -58 23 -124 27 -53 3 -94
0 -105 -7 -18 -10 -18 -10 4 -11 13 0 22 -6 22 -15 0 -8 -7 -15 -15 -15 -9 0
-15 -10 -16 -22 0 -13 -3 -17 -6 -10 -4 10 -8 10 -19 1 -8 -6 -11 -16 -7 -22
3 -5 1 -7 -5 -3 -6 3 -17 -2 -24 -12 -7 -11 -16 -19 -20 -18 -9 1 -58 -71 -74
-111 -18 -42 -17 -113 2 -193 8 -36 16 -99 16 -140 1 -68 -5 -91 -60 -241 -33
-91 -65 -192 -71 -224 -7 -36 -24 -78 -46 -111 -37 -55 -65 -123 -65 -156 0
-15 -17 -75 -46 -157 -3 -9 -8 -11 -14 -5 -9 9 15 98 76 281 10 29 15 55 11
59 -3 3 -97 31 -209 61 -112 30 -206 57 -209 61 -3 4 -12 27 -18 52 -7 25 -21
74 -31 110 -17 58 -19 60 -14 20 7 -55 34 -161 46 -176 12 -17 -20 -40 -81
-58 -71 -21 -105 -21 -97 -1 8 21 -12 67 -26 63 -26 -9 -43 26 -49 104 -6 68
-13 88 -50 150 -36 61 -42 79 -40 122 1 28 4 59 7 69 3 9 1 17 -5 17 -6 0 -11
-10 -12 -22 0 -32 -79 217 -86 275 -4 32 -2 47 6 47 21 0 12 69 -16 113 -29
45 -63 114 -63 128 0 5 -21 41 -46 80 -33 51 -49 67 -55 58 -9 -16 -11 -14
-33 28 -20 40 -21 143 -2 198 18 51 88 115 126 115 15 0 30 6 33 13 6 16 79
20 129 6 23 -6 50 -25 74 -52 78 -90 99 -194 66 -317 -26 -97 -38 -200 -23
-200 6 0 11 18 11 41 0 23 9 80 21 128 39 158 8 287 -93 390 -86 88 -162 105
-408 91z m1625 -655 c59 -10 131 -53 182 -110 99 -109 109 -201 30 -283 -46
-48 -84 -65 -147 -65 -67 0 -123 26 -191 90 -134 125 -129 276 11 346 29 14
45 28 38 31 -7 3 -2 3 12 1 14 -2 43 -7 65 -10z m-1492 -180 c29 -29 100 -255
122 -390 4 -21 15 -56 25 -76 11 -20 16 -39 13 -43 -4 -3 -2 -6 4 -6 6 0 11
-10 11 -22 0 -13 16 -84 35 -158 19 -74 33 -138 30 -142 -7 -13 -30 -9 -30 5
-1 15 -20 69 -43 122 -9 22 -25 74 -35 115 -10 41 -24 82 -31 90 -14 18 -46
119 -67 210 -8 36 -20 86 -26 113 -6 26 -11 60 -11 76 0 16 -7 48 -15 71 -8
23 -15 44 -15 46 0 9 20 3 33 -11z m287 -563 c23 -54 8 -52 -21 3 -17 33 -34
65 -37 70 -4 6 6 -3 21 -20 15 -16 32 -40 37 -53z m-1447 -237 c-3 -9 -8 -14
-10 -11 -3 3 -2 9 2 15 9 16 15 13 8 -4z m2317 -13 c0 -16 -7 -37 -16 -48 -15
-19 -16 -19 -8 1 4 11 9 32 12 48 6 35 12 35 12 -1z m-101 -144 c-12 -24 -26
-56 -30 -73 l-7 -30 -1 34 c-1 23 8 48 25 73 35 50 40 48 13 -4z m-2299 -129
c-13 -81 -13 -179 0 -250 5 -30 11 -66 14 -82 3 -15 7 -37 10 -50 3 -12 -1 -7
-10 12 -23 50 -34 124 -34 224 0 85 17 223 27 214 2 -3 -1 -33 -7 -68z m430
-112 c-18 -15 -26 -57 -10 -57 7 0 9 -8 5 -20 -7 -22 22 -41 34 -22 4 7 12 8
21 2 11 -7 12 -10 2 -10 -16 0 -42 -24 -42 -39 0 -13 47 -14 105 -2 22 4 51 4
65 0 l25 -7 -25 -1 c-20 -1 -22 -3 -10 -11 11 -7 4 -10 -27 -10 -36 0 -45 -4
-57 -27 -14 -28 -66 -181 -66 -195 0 -5 12 -8 28 -8 22 -1 24 -2 10 -10 -22
-13 -33 -50 -56 -195 -54 -326 -55 -328 -49 -549 6 -253 18 -307 108 -509 l62
-138 -16 -35 -17 -34 -70 0 c-39 0 -85 6 -103 14 -45 18 -174 131 -203 178
-74 118 -99 244 -98 508 1 210 13 330 56 553 20 100 23 110 58 141 23 20 41
48 45 68 4 18 18 68 32 111 22 71 27 78 54 84 32 6 45 18 29 28 -18 11 -11 70
13 116 15 27 38 52 63 66 43 25 57 29 34 10z m407 -197 c170 -23 483 -89 525
-111 15 -8 15 -12 -3 -51 -11 -24 -24 -50 -28 -58 -5 -9 -12 -35 -16 -58 -4
-23 -12 -42 -18 -42 -7 0 -79 13 -162 30 -82 16 -159 29 -170 29 -17 0 215
-58 238 -59 5 0 5 -5 2 -10 -4 -7 2 -9 17 -5 12 3 37 1 53 -5 28 -9 27 -9 -10
-4 -53 7 -80 -18 -68 -62 9 -37 5 -65 -13 -84 -7 -9 -16 -42 -18 -75 -3 -32
-10 -61 -15 -65 -6 -3 -13 -33 -16 -65 -4 -33 -11 -71 -16 -85 -4 -14 -11 -56
-14 -94 -3 -38 -10 -89 -16 -115 -6 -25 -15 -85 -20 -133 -9 -90 -36 -161 -66
-172 -9 -4 -13 -9 -10 -13 4 -3 2 -12 -4 -20 -17 -20 -113 -16 -162 6 -50 23
-67 40 -97 100 -43 85 -59 155 -71 303 -13 149 -7 232 32 518 5 41 11 96 12
123 l2 47 60 -4 c62 -5 55 -2 -31 15 l-50 10 18 72 c28 117 38 147 48 147 5 0
44 -5 87 -10z m270 -16 c-3 -3 -12 -4 -19 -1 -8 3 -5 6 6 6 11 1 17 -2 13 -5z
m90 -20 c-3 -3 -12 -4 -19 -1 -8 3 -5 6 6 6 11 1 17 -2 13 -5z m143 -28 c0 -2
-7 -7 -16 -10 -8 -3 -12 -2 -9 4 6 10 25 14 25 6z m437 -112 c-3 -3 -12 -4
-19 -1 -8 3 -5 6 6 6 11 1 17 -2 13 -5z m40 -10 c-3 -3 -12 -4 -19 -1 -8 3 -5
6 6 6 11 1 17 -2 13 -5z m1382 -103 c1 -78 -6 -59 -12 29 -3 45 -2 65 3 50 4
-14 8 -49 9 -79z m-1306 82 c-7 -2 -19 -2 -25 0 -7 3 -2 5 12 5 14 0 19 -2 13
-5z m-46 -9 c-3 -3 -12 -4 -19 -1 -8 3 -5 6 6 6 11 1 17 -2 13 -5z m90 0 c-3
-3 -12 -4 -19 -1 -8 3 -5 6 6 6 11 1 17 -2 13 -5z m40 -10 c-3 -3 -12 -4 -19
-1 -8 3 -5 6 6 6 11 1 17 -2 13 -5z m-14 -21 c-7 -2 -19 -2 -25 0 -7 3 -2 5
12 5 14 0 19 -2 13 -5z m127 -7 c25 -8 38 -15 30 -15 -8 0 -35 6 -60 13 -25 8
-38 15 -30 15 8 0 35 -6 60 -13z m-120 -46 c0 -21 5 -30 16 -30 9 0 29 -9 45
-21 24 -17 29 -28 29 -60 0 -53 -29 -83 -73 -74 -54 12 -56 19 -44 123 10 87
27 126 27 62z m97 24 c-3 -3 -12 -4 -19 -1 -8 3 -5 6 6 6 11 1 17 -2 13 -5z
m100 0 c-3 -3 -12 -4 -19 -1 -8 3 -5 6 6 6 11 1 17 -2 13 -5z m40 -10 c-3 -3
-12 -4 -19 -1 -8 3 -5 6 6 6 11 1 17 -2 13 -5z m-60 -10 c-3 -3 -12 -4 -19 -1
-8 3 -5 6 6 6 11 1 17 -2 13 -5z m107 -3 c4 -5 -3 -7 -14 -4 -23 6 -26 13 -6
13 8 0 17 -4 20 -9z m-25 -17 c10 -9 -35 -3 -49 6 -11 8 -7 9 15 4 17 -4 32
-8 34 -10z m124 -11 c-7 -2 -19 -2 -25 0 -7 3 -2 5 12 5 14 0 19 -2 13 -5z
m-56 -9 c-3 -3 -12 -4 -19 -1 -8 3 -5 6 6 6 11 1 17 -2 13 -5z m100 0 c-3 -3
-12 -4 -19 -1 -8 3 -5 6 6 6 11 1 17 -2 13 -5z m-24 -15 c22 -6 37 -12 35 -14
-2 -2 -26 2 -53 10 -28 7 -43 14 -35 14 8 1 32 -4 53 -10z m122 -10 c13 -6 6
-7 -20 -3 -22 4 -47 11 -55 16 -18 11 44 0 75 -13z m-332 -20 c30 -16 37 -28
37 -69 -1 -46 -20 -70 -57 -70 -47 0 -68 22 -68 73 0 69 34 94 88 66z m312 1
c13 -5 14 -9 5 -9 -8 0 -24 4 -35 9 -13 5 -14 9 -5 9 8 0 24 -4 35 -9z m-77
-27 c-2 -23 1 -29 20 -31 12 -2 22 -8 22 -13 0 -5 -11 -7 -24 -3 -21 5 -24 1
-29 -33 -4 -21 -7 -51 -7 -67 0 -23 3 -27 20 -23 11 3 23 1 26 -4 9 -15 -53
-10 -66 5 -8 11 -9 31 -2 75 8 56 7 60 -12 67 -21 7 -21 7 0 11 12 2 24 13 27
24 8 30 29 23 25 -8z m247 6 c13 -6 5 -6 -20 -3 -22 4 -47 10 -55 15 -18 10
46 0 75 -12z m-118 5 c-3 -3 -12 -4 -19 -1 -8 3 -5 6 6 6 11 1 17 -2 13 -5z
m-221 -18 c2 -2 34 -148 34 -156 0 -4 -11 -5 -25 -3 -13 3 -23 10 -22 15 2 13
-57 31 -61 19 -1 -4 -14 -6 -27 -3 l-25 4 27 47 c52 91 53 92 76 85 12 -3 23
-7 23 -8z m-649 -12 c-3 -3 -12 -4 -19 -1 -8 3 -5 6 6 6 11 1 17 -2 13 -5z
m990 0 c-3 -3 -12 -4 -19 -1 -8 3 -5 6 6 6 11 1 17 -2 13 -5z m-950 -10 c-3
-3 -12 -4 -19 -1 -8 3 -5 6 6 6 11 1 17 -2 13 -5z m80 -20 c-3 -3 -12 -4 -19
-1 -8 3 -5 6 6 6 11 1 17 -2 13 -5z m63 -14 c20 -6 21 -8 5 -8 -11 0 -29 3
-40 8 -25 11 1 11 35 0z m1347 -22 c-3 -7 -5 -2 -5 12 0 14 2 19 5 13 2 -7 2
-19 0 -25z m-1217 -12 c25 -8 36 -15 25 -15 -25 1 -106 27 -85 28 8 0 35 -6
60 -13z m77 -22 c-3 -3 -12 -4 -19 -1 -8 3 -5 6 6 6 11 1 17 -2 13 -5z m118
-29 c22 -7 33 -13 25 -14 -8 0 -42 8 -75 19 -33 11 -44 17 -25 13 19 -3 53
-11 75 -18z m72 -21 c-3 -3 -12 -4 -19 -1 -8 3 -5 6 6 6 11 1 17 -2 13 -5z
m40 -10 c-3 -3 -12 -4 -19 -1 -8 3 -5 6 6 6 11 1 17 -2 13 -5z m-397 -1599
c14 -8 42 -14 62 -15 20 0 49 -5 65 -11 15 -7 37 -13 48 -13 38 -3 170 -27
201 -37 17 -5 38 -9 47 -9 9 0 17 -5 17 -12 0 -14 -190 -4 -219 12 -11 5 -42
10 -70 10 -27 0 -53 5 -56 10 -3 6 -22 10 -41 10 -19 0 -34 5 -34 10 0 6 -11
10 -24 10 -27 0 -59 26 -51 41 8 13 26 11 55 -6z m-63 -161 c-3 -3 -12 -4 -19
-1 -8 3 -5 6 6 6 11 1 17 -2 13 -5z m28 -24 c-3 -5 -16 -10 -28 -9 -20 1 -20
2 3 9 14 4 26 8 28 9 2 1 0 -3 -3 -9z"/>
<path d="M12570 5112 c-107 -49 -139 -147 -80 -249 68 -118 210 -185 298 -139
57 30 102 94 102 147 0 72 -90 191 -175 230 -40 18 -116 24 -145 11z m140
-147 l0 -65 -52 -1 -53 -1 65 -21 c36 -12 67 -23 69 -24 3 -2 -5 -13 -16 -24
-21 -21 -21 -21 -84 -3 -53 16 -64 23 -70 47 -6 22 -4 27 12 27 11 0 40 26 71
65 28 36 53 65 55 65 2 0 3 -29 3 -65z"/>
<path d="M10320 3600 c-8 -5 -10 -10 -5 -10 6 0 17 5 25 10 8 5 11 10 5 10 -5
0 -17 -5 -25 -10z"/>
<path d="M10838 3313 c7 -3 16 -2 19 1 4 3 -2 6 -13 5 -11 0 -14 -3 -6 -6z"/>
<path d="M11893 3208 c-6 -7 -13 -32 -16 -55 -4 -35 -2 -43 14 -48 45 -15 83
42 60 91 -11 26 -42 32 -58 12z"/>
<path d="M12022 3160 c-17 -28 -15 -54 7 -81 18 -22 19 -22 45 -6 28 19 34 53
16 88 -14 25 -52 24 -68 -1z"/>
<path d="M12182 3083 c-15 -28 -15 -33 2 -33 20 0 25 11 16 35 -7 19 -7 19
-18 -2z"/>
<path d="M11268 5690 c-98 -52 -151 -196 -113 -309 19 -57 86 -136 125 -146
23 -6 22 -5 -5 13 -17 10 -48 45 -70 77 -39 55 -40 60 -40 140 0 73 3 86 30
131 17 28 52 63 79 82 54 36 51 42 -6 12z"/>
<path d="M11391 5647 c18 -12 46 -47 62 -77 24 -46 28 -63 24 -106 -9 -85 -51
-150 -122 -187 -16 -9 -23 -16 -15 -17 53 -1 132 92 151 176 11 47 10 63 -5
108 -17 57 -80 126 -113 126 -10 0 -3 -9 18 -23z"/>
<path d="M11318 5223 c7 -3 16 -2 19 1 4 3 -2 6 -13 5 -11 0 -14 -3 -6 -6z"/>
<path d="M11501 5094 c0 -11 3 -14 6 -6 3 7 2 16 -1 19 -3 4 -6 -2 -5 -13z"/>
<path d="M11511 5054 c0 -11 3 -14 6 -6 3 7 2 16 -1 19 -3 4 -6 -2 -5 -13z"/>
<path d="M11531 4974 c0 -11 3 -14 6 -6 3 7 2 16 -1 19 -3 4 -6 -2 -5 -13z"/>
<path d="M11571 4830 c0 -8 4 -24 9 -35 5 -13 9 -14 9 -5 0 8 -4 24 -9 35 -5
13 -9 14 -9 5z"/>
<path d="M12321 4618 c-1 -10 -9 -33 -18 -52 -13 -28 -19 -33 -30 -25 -22 19
-16 -11 11 -56 l25 -40 10 26 c17 45 21 92 12 129 -5 19 -9 27 -10 18z"/>
<path d="M11414 4584 c11 -62 16 -73 37 -85 11 -5 17 -14 14 -20 -4 -5 -1 -9
5 -9 6 0 8 -4 5 -10 -3 -5 -1 -10 4 -10 6 0 10 -3 9 -7 0 -5 6 -24 16 -43 l16
-35 -5 38 c-3 21 -23 68 -45 104 -22 37 -40 75 -40 84 0 10 -5 21 -11 25 -9 5
-10 -4 -5 -32z"/>
<path d="M11451 4605 c1 -19 18 -51 18 -35 0 8 -4 22 -9 30 -5 8 -9 11 -9 5z"/>
<path d="M12894 4541 c-48 -22 -87 -61 -110 -111 -9 -19 -23 -42 -30 -51 -24
-28 -116 -301 -105 -312 6 -6 37 -16 68 -24 l58 -13 -50 5 c-27 2 -61 8 -74
11 l-25 7 24 -37 c52 -85 183 -176 253 -176 50 0 90 34 50 42 -15 3 -18 15
-18 86 -1 57 -5 86 -14 91 -9 6 1 14 31 25 123 50 280 191 293 263 8 52 -9 90
-52 115 l-31 19 -19 -58 c-17 -51 -23 -58 -54 -66 -19 -5 -45 -19 -59 -32 -14
-13 -43 -32 -65 -44 l-40 -21 -17 33 c-25 46 -23 112 3 138 12 12 25 36 30 53
4 17 11 41 14 54 9 28 -5 28 -61 3z"/>
<path d="M11480 4542 c0 -5 12 -19 27 -33 l26 -24 -19 33 c-17 30 -34 42 -34
24z"/>
<path d="M11661 4514 c0 -11 3 -14 6 -6 3 7 2 16 -1 19 -3 4 -6 -2 -5 -13z"/>
<path d="M11501 4344 c0 -11 3 -14 6 -6 3 7 2 16 -1 19 -3 4 -6 -2 -5 -13z"/>
<path d="M12217 4130 c-9 -24 -15 -45 -13 -47 6 -6 38 67 34 79 -2 6 -12 -9
-21 -32z"/>
<path d="M12468 4135 c-4 -11 -10 -33 -12 -50 -4 -20 -24 -47 -63 -81 -58 -52
-58 -52 -57 -108 0 -31 5 -61 12 -68 9 -9 12 0 12 41 0 62 9 81 66 143 45 48
58 79 52 119 -3 22 -4 23 -10 4z"/>
<path d="M12404 3906 c-3 -14 -4 -32 -2 -42 2 -10 8 1 14 24 6 23 7 42 3 42
-5 0 -11 -11 -15 -24z"/>
<path d="M9138 2843 c7 -3 16 -2 19 1 4 3 -2 6 -13 5 -11 0 -14 -3 -6 -6z"/>
<path d="M12755 2820 c11 -5 27 -9 35 -9 9 0 8 4 -5 9 -11 5 -27 9 -35 9 -9 0
-8 -4 5 -9z"/>
<path d="M8986 2555 c-28 -25 -47 -47 -44 -50 6 -7 108 74 108 86 0 17 -15 8
-64 -36z"/>
<path d="M12732 2430 c0 -14 2 -19 5 -12 2 6 2 18 0 25 -3 6 -5 1 -5 -13z"/>
<path d="M12605 1840 c-3 -5 -1 -10 4 -10 6 0 11 5 11 10 0 6 -2 10 -4 10 -3
0 -8 -4 -11 -10z"/>
</g>
</svg>
