<?xml version="1.0" standalone="no"?>
<!DOCTYPE svg PUBLIC "-//W3C//DTD SVG 20010904//EN"
 "http://www.w3.org/TR/2001/REC-SVG-20010904/DTD/svg10.dtd">
<svg version="1.0" xmlns="http://www.w3.org/2000/svg"
 width="1440.000000pt" height="602.000000pt" viewBox="0 0 1440.000000 602.000000"
 preserveAspectRatio="xMidYMid meet">

<g transform="translate(0.000000,602.000000) scale(0.100000,-0.100000)"
fill="#000000" stroke="none">
<path d="M0 3010 l0 -3010 7200 0 7200 0 0 3010 0 3010 -7200 0 -7200 0 0
-3010z m1020 1592 l95 -127 3 128 3 127 29 0 30 0 0 -185 0 -185 -32 1 c-30 0
-41 11 -128 127 l-95 127 -3 -128 -3 -127 -34 0 -35 0 0 185 0 185 38 0 c36
-1 40 -5 132 -128z m310 -57 l0 -185 -35 0 -35 0 0 185 0 185 35 0 35 0 0
-185z m320 170 c41 -21 60 -53 60 -100 0 -38 -30 -105 -47 -105 -5 0 -15 -4
-22 -9 -12 -8 -7 -20 27 -69 23 -33 42 -63 42 -66 0 -3 -16 -6 -34 -6 -32 0
-40 7 -81 65 -42 58 -50 65 -81 65 l-34 0 0 -65 0 -65 -35 0 -35 0 0 185 0
185 105 0 c75 0 115 -4 135 -15z m180 -67 c18 -46 44 -108 58 -138 l24 -55 57
135 56 135 38 3 c20 2 37 1 37 -1 0 -3 -33 -85 -74 -183 l-74 -179 -40 -3 -39
-3 -74 177 c-41 98 -75 181 -77 186 -2 4 14 8 35 8 l39 0 34 -82z m539 -98
c39 -99 71 -183 71 -185 0 -3 -25 -5 -56 -5 -52 0 -56 2 -50 20 3 11 9 29 12
40 6 19 2 20 -109 20 l-116 0 15 -35 c7 -19 14 -37 14 -40 0 -3 -27 -5 -61 -5
-45 0 -60 3 -56 13 3 6 35 90 72 185 l68 172 63 0 63 0 70 -180z m281 53 l95
-127 3 127 3 127 35 0 34 0 -2 -182 -3 -183 -34 0 c-33 0 -41 8 -133 129 l-98
128 0 -131 0 -131 -35 0 -35 0 0 185 0 185 38 0 c37 0 40 -3 132 -127z m443
115 c3 -7 37 -89 76 -181 39 -93 71 -171 71 -173 0 -2 -16 -4 -35 -4 -31 0
-38 5 -52 35 l-17 35 -88 0 -89 0 -15 -35 c-12 -31 -19 -35 -49 -35 -19 0 -35
4 -35 9 0 9 135 334 146 352 8 14 81 11 87 -3z m-463 -456 c0 -28 3 -33 12
-24 33 33 118 -5 118 -52 1 -21 1 -21 12 -1 40 73 98 87 142 34 16 -18 26 -43
26 -62 1 -28 4 -25 27 31 23 58 27 62 57 62 28 0 33 -5 48 -42 9 -24 25 -67
37 -95 l21 -53 -29 0 c-24 0 -28 3 -24 20 5 18 0 20 -52 20 -52 0 -57 -2 -52
-20 4 -17 0 -20 -25 -20 -25 0 -28 3 -23 21 l7 21 -21 -21 c-43 -43 -107 -22
-138 47 -11 26 -11 26 -12 4 -1 -13 -12 -34 -26 -48 -21 -21 -33 -25 -73 -22
l-47 3 -3 123 c-2 83 1 121 8 117 5 -3 10 -23 10 -43z m561 -12 c16 0 29 -4
29 -10 0 -5 -13 -10 -30 -10 -30 0 -30 0 -30 -59 0 -81 5 -91 47 -91 20 0 32
-4 28 -10 -9 -14 -68 -13 -83 2 -7 7 -12 42 -12 85 0 71 -1 73 -25 73 -14 0
-25 5 -25 10 0 6 11 10 25 10 20 0 25 5 25 23 0 37 15 43 18 8 3 -27 7 -31 33
-31z m5123 8 c-3 -4 -9 -8 -15 -8 -5 0 -9 4 -9 8 0 5 7 9 15 9 8 0 12 -4 9 -9z
m-119 -38 c-9 -16 -18 -30 -20 -30 -6 0 6 32 18 48 17 22 18 13 2 -18z m80 20
c-3 -5 -11 -10 -16 -10 -6 0 -7 5 -4 10 3 6 11 10 16 10 6 0 7 -4 4 -10z m155
-35 c5 3 12 0 16 -7 4 -7 3 -10 -1 -5 -5 4 -19 -2 -31 -14 -18 -17 -26 -19
-41 -10 -13 8 -14 11 -3 10 33 -3 40 2 41 29 1 17 3 20 6 9 2 -9 8 -15 13 -12z
m-6026 -19 c-5 -20 -2 -25 18 -28 30 -4 34 -29 9 -59 l-20 -24 11 32 c7 18 9
35 5 39 -13 13 -38 -7 -43 -36 -4 -16 -11 -30 -16 -30 -6 0 -8 6 -5 13 2 6 10
36 17 65 8 28 18 52 22 52 5 0 6 -11 2 -24z m5944 -20 c-2 -1 -14 -10 -28 -21
l-25 -20 18 22 c12 13 16 27 11 35 -6 10 -4 10 9 -1 10 -8 16 -14 15 -15z m87
-6 c3 -5 1 -10 -4 -10 -6 0 -11 5 -11 10 0 6 2 10 4 10 3 0 8 -4 11 -10z
m-5941 -31 c4 -21 10 -28 18 -23 7 4 4 -3 -7 -15 l-20 -23 -3 38 c-2 21 -9 42
-15 46 -8 5 -7 8 4 8 10 0 19 -11 23 -31z m46 17 c0 -8 -4 -17 -8 -20 -4 -2
-8 4 -8 15 0 10 4 19 8 19 4 0 8 -6 8 -14z m5845 -6 c3 -5 1 -10 -4 -10 -6 0
-11 5 -11 10 0 6 2 10 4 10 3 0 8 -4 11 -10z m-99 -85 c10 4 6 -1 -9 -10 -16
-9 -31 -14 -35 -11 -3 3 0 6 6 6 6 0 9 8 6 18 -4 12 -3 13 3 4 5 -7 18 -10 29
-7z m-5811 -5 c-3 -5 -14 -10 -23 -9 -14 0 -13 2 3 9 27 11 27 11 20 0z m5346
-44 c-7 -12 -11 -51 -9 -91 3 -66 4 -68 21 -51 23 23 32 15 17 -14 -18 -33 -4
-151 17 -148 9 2 17 -5 18 -14 2 -10 -2 -15 -10 -12 -10 4 -12 -1 -8 -15 5
-21 33 -30 33 -11 0 16 17 12 24 -6 3 -8 2 -12 -3 -9 -5 3 -16 -4 -24 -16 -11
-15 -16 -17 -20 -7 -2 7 -3 4 -1 -8 2 -11 -5 -28 -16 -37 -21 -18 -26 -37 -11
-37 5 0 13 9 16 20 4 12 15 20 28 19 19 0 20 -1 4 -8 -10 -4 -19 -11 -19 -16
-1 -6 -8 -15 -16 -21 -11 -8 -12 -13 -4 -18 7 -4 12 -2 12 5 0 9 3 9 14 -1 8
-6 12 -18 9 -26 -4 -10 0 -12 13 -8 16 6 17 5 7 -7 -10 -10 -16 -10 -25 -1 -7
7 -19 12 -27 12 -13 -1 -12 -4 4 -17 16 -13 17 -15 3 -10 -10 4 -18 2 -18 -4
0 -6 9 -13 20 -16 11 -3 20 -9 20 -15 0 -5 -8 -4 -19 2 -17 9 -21 5 -31 -25
-7 -22 -16 -33 -23 -28 -9 5 -9 3 -1 -8 18 -23 12 -74 -9 -73 -9 1 -17 -3 -18
-10 -4 -42 -7 -75 -8 -98 0 -16 -7 -28 -14 -28 -23 0 -57 -40 -57 -65 0 -14
-4 -25 -9 -25 -5 0 -3 24 5 53 15 57 39 301 49 497 6 131 19 242 36 325 16 77
32 121 37 107 2 -8 -1 -24 -7 -36z m499 19 c0 -7 -30 -13 -34 -7 -3 4 4 9 15
9 10 1 19 0 19 -2z m30 -295 c0 -5 -5 -10 -11 -10 -5 0 -7 5 -4 10 3 6 8 10
11 10 2 0 4 -4 4 -10z m-35 -60 c-5 -8 -11 -6 -20 7 -17 23 -7 39 12 20 9 -8
12 -20 8 -27z m30 30 c3 -6 -1 -7 -9 -4 -18 7 -21 14 -7 14 6 0 13 -4 16 -10z
m2746 -28 c-7 -2 -18 1 -23 6 -8 8 -4 9 13 5 13 -4 18 -8 10 -11z m-2805 -14
c4 -7 3 -8 -4 -4 -7 4 -12 2 -12 -5 0 -7 -3 -10 -6 -6 -6 5 3 27 11 27 2 0 7
-5 11 -12z m-5982 -24 c21 -8 21 -50 0 -58 -32 -12 -57 27 -32 52 14 14 12 14
32 6z m1590 -17 c16 -25 -16 -56 -38 -37 -19 15 -20 32 -4 48 15 15 28 11 42
-11z m1540 0 c8 -12 7 -21 -5 -32 -21 -21 -49 -9 -49 20 0 36 34 44 54 12z
m-4359 -109 c26 -62 54 -128 62 -145 l13 -33 -35 0 c-29 0 -36 4 -41 25 -6 24
-10 25 -73 25 -63 0 -69 -2 -79 -25 -9 -19 -19 -25 -42 -25 -16 0 -30 2 -30 4
0 2 34 84 105 254 11 26 20 32 43 32 29 0 32 -5 77 -112z m370 98 c39 -17 55
-42 55 -86 0 -17 -5 -40 -11 -52 -14 -27 -69 -48 -124 -48 l-45 0 0 -45 c0
-41 -2 -45 -25 -45 l-25 0 0 145 0 145 70 0 c39 0 86 -6 105 -14z m1788 -23
c8 -21 36 -86 61 -145 l45 -108 -33 0 c-25 0 -35 6 -44 25 -11 23 -17 25 -75
25 -58 0 -65 -2 -75 -25 -9 -19 -19 -25 -42 -25 -16 0 -30 2 -30 5 0 7 99 244
111 268 6 10 21 17 38 17 24 0 31 -6 44 -37z m577 -108 l0 -145 -30 0 c-16 0
-30 5 -30 11 0 5 -10 3 -22 -5 -43 -31 -114 -10 -136 39 -26 56 -6 141 37 165
25 13 88 13 96 0 14 -23 25 -7 25 35 0 43 1 45 30 45 l30 0 0 -145z m690 115
l0 -30 -80 0 -80 0 0 -30 0 -30 75 0 c73 0 75 -1 75 -25 0 -24 -2 -25 -75 -25
l-75 0 0 -35 0 -35 80 0 c79 0 80 0 80 -25 l0 -25 -110 0 -110 0 0 145 0 145
110 0 110 0 0 -30z m3420 20 c0 -5 -4 -10 -10 -10 -5 0 -10 5 -10 10 0 6 5 10
10 10 6 0 10 -4 10 -10z m3340 -105 c0 -5 -11 10 -25 34 -14 23 -25 46 -25 50
1 10 50 -73 50 -84z m-9684 30 c5 -13 8 -13 27 0 31 22 47 18 47 -10 0 -17 -6
-25 -17 -25 -37 0 -53 -30 -53 -102 l0 -68 -30 0 -30 0 0 110 0 110 25 0 c14
0 28 -7 31 -15z m257 -5 c22 -17 47 -72 47 -102 0 -5 -36 -8 -80 -8 -44 0 -80
-4 -80 -8 0 -5 9 -17 20 -27 17 -16 25 -17 57 -7 27 8 40 8 50 0 20 -16 16
-26 -17 -43 -37 -19 -73 -19 -110 0 -42 21 -60 53 -60 103 0 90 105 145 173
92z m229 3 c15 -13 19 -13 40 1 33 23 75 20 103 -9 23 -22 25 -32 25 -110 0
-84 0 -85 -25 -85 -24 0 -25 2 -25 66 0 77 -12 104 -45 104 -33 0 -45 -27 -45
-104 0 -64 -1 -66 -25 -66 -24 0 -25 2 -25 74 0 80 -11 100 -52 94 -22 -3 -23
-8 -26 -85 l-3 -83 -29 0 -30 0 0 109 0 108 73 1 c51 0 77 -4 89 -15z m258
-93 l0 -110 -30 0 -30 0 0 103 c0 57 3 107 7 110 3 4 17 7 30 7 23 0 23 -1 23
-110z m92 29 c3 -93 16 -112 62 -91 25 11 26 15 26 92 l0 81 28 -3 27 -3 3
-108 3 -108 -43 1 c-24 1 -57 -2 -74 -5 -24 -5 -37 -2 -60 18 -26 23 -29 32
-32 101 -5 91 0 106 32 106 25 0 25 -2 28 -81z m234 70 c4 -8 9 -8 17 0 16 16
68 13 88 -5 16 -15 20 -15 41 0 33 23 75 20 103 -9 23 -22 25 -32 25 -110 0
-84 0 -85 -25 -85 -24 0 -25 2 -25 66 0 77 -12 104 -45 104 -33 0 -45 -27 -45
-104 0 -64 -1 -66 -25 -66 -24 0 -25 2 -25 74 0 80 -11 100 -52 94 -22 -3 -23
-8 -26 -85 l-3 -83 -29 0 -30 0 0 110 c0 110 0 110 24 110 14 0 28 -5 32 -11z
m762 -69 c3 -76 13 -100 40 -100 37 0 52 30 52 107 0 71 1 73 25 73 l25 0 0
-110 0 -110 -25 0 c-14 0 -25 5 -25 11 0 5 -10 3 -22 -5 -40 -28 -97 -13 -117
31 -12 26 -15 165 -4 177 4 4 16 6 28 4 18 -3 20 -11 23 -78z m492 -30 l0
-110 -30 0 -30 0 0 110 0 110 30 0 30 0 0 -110z m213 80 c41 -36 52 -78 32
-125 -15 -38 -67 -75 -103 -75 -37 0 -86 28 -105 59 -66 112 78 227 176 141z
m479 -2 l28 -33 26 33 c16 20 34 32 50 32 32 0 30 -9 -11 -63 l-36 -47 41 -55
41 -55 -36 0 c-19 0 -35 3 -35 8 -1 4 -10 18 -21 31 l-20 24 -27 -32 c-21 -25
-34 -32 -54 -29 l-27 3 39 51 39 52 -34 45 c-19 25 -35 51 -35 56 0 24 46 10
72 -21z m208 16 c0 -14 2 -14 22 0 36 26 85 20 119 -13 24 -25 29 -37 29 -81
0 -62 -11 -85 -50 -105 -37 -19 -70 -19 -98 1 -22 15 -22 15 -22 -35 0 -48 -2
-51 -25 -51 l-25 0 0 150 0 150 25 0 c16 0 25 -6 25 -16z m363 -4 c22 -17 47
-72 47 -102 0 -5 -36 -8 -80 -8 -81 0 -93 -6 -64 -34 18 -19 33 -20 70 -6 19
7 30 7 40 -1 21 -17 17 -27 -16 -44 -37 -19 -73 -19 -110 0 -42 21 -60 53 -60
103 0 90 105 145 173 92z m125 4 c8 -14 10 -14 21 0 20 24 51 20 51 -6 0 -16
-11 -28 -33 -38 -31 -15 -32 -17 -35 -87 l-3 -73 -29 0 -30 0 0 110 0 110 25
0 c13 0 28 -7 33 -16z m142 -94 l0 -110 -25 0 -25 0 0 110 0 110 25 0 25 0 0
-110z m203 90 c22 -17 47 -72 47 -102 0 -5 -36 -8 -80 -8 -44 0 -80 -4 -80 -8
0 -5 9 -17 20 -27 17 -16 25 -17 57 -7 36 11 63 3 63 -19 0 -13 -56 -39 -85
-39 -34 0 -80 24 -99 52 -18 26 -21 86 -5 121 25 55 114 75 162 37z m120 8 c4
-10 7 -10 18 0 22 21 77 15 104 -13 23 -22 25 -32 25 -110 0 -84 0 -85 -25
-85 -24 0 -25 2 -25 66 0 77 -12 104 -45 104 -37 0 -55 -35 -55 -107 0 -61 -1
-63 -25 -63 l-25 0 0 110 c0 110 0 110 24 110 13 0 26 -6 29 -12z m342 0 c28
-13 32 -30 10 -48 -12 -10 -18 -10 -29 -1 -24 20 -69 9 -85 -20 -31 -56 19
-116 76 -90 22 10 29 9 42 -3 25 -26 -8 -51 -69 -51 -40 0 -54 5 -79 29 -96
92 11 240 134 184z m204 -2 c30 -16 51 -53 51 -91 0 -24 -2 -25 -75 -25 -60 0
-75 -3 -75 -15 0 -25 45 -40 77 -26 23 10 29 9 47 -8 l20 -20 -37 -16 c-46
-19 -71 -19 -112 1 -32 15 -65 64 -65 97 0 85 92 142 169 103z m1731 -38 c0
-20 -18 -5 -23 19 -5 26 -4 26 9 8 8 -10 14 -22 14 -27z m-120 28 c0 -3 -4 -8
-10 -11 -5 -3 -10 -1 -10 4 0 6 5 11 10 11 6 0 10 -2 10 -4z m110 -66 c0 -5
-2 -10 -4 -10 -3 0 -8 5 -11 10 -3 6 -1 10 4 10 6 0 11 -4 11 -10z m-57 -15
c-3 -9 -8 -14 -10 -11 -3 3 -2 9 2 15 9 16 15 13 8 -4z m3343 -76 c7 -30 13
-63 13 -74 0 -15 -36 109 -39 134 -2 20 14 -18 26 -60z m21 -191 c-3 -7 -5 -2
-5 12 0 14 2 19 5 13 2 -7 2 -19 0 -25z m0 -105 c-2 -16 -4 -5 -4 22 0 28 2
40 4 28 2 -13 2 -35 0 -50z m-8847 -68 c0 -63 -4 -105 -10 -105 -6 0 -10 42
-10 105 0 63 4 105 10 105 6 0 10 -42 10 -105z m5280 95 c0 -5 -5 -10 -11 -10
-5 0 -7 5 -4 10 3 6 8 10 11 10 2 0 4 -4 4 -10z m-6795 -13 c10 -8 15 -19 11
-26 -6 -9 -11 -9 -21 -1 -18 15 -60 9 -60 -9 0 -8 18 -20 40 -28 56 -19 72
-54 39 -87 -20 -20 -88 -21 -104 -1 -16 19 -3 40 15 25 18 -15 70 -9 70 9 0 7
-20 21 -45 30 -33 12 -46 23 -48 40 -7 49 59 79 103 48z m583 2 c-2 -6 -8 -10
-13 -10 -5 0 -11 4 -13 10 -2 6 4 11 13 11 9 0 15 -5 13 -11z m416 2 c3 -5 21
-45 41 -90 31 -74 33 -81 15 -81 -10 0 -22 9 -25 20 -5 15 -15 20 -45 20 -29
0 -42 -5 -50 -20 -10 -18 -40 -29 -40 -14 0 3 16 43 36 90 33 77 54 99 68 75z
m159 -52 l46 -61 3 58 c2 35 8 59 16 62 9 3 12 -19 12 -87 0 -111 -9 -115 -71
-30 l-44 61 -3 -61 c-2 -45 -7 -61 -17 -61 -12 0 -15 18 -15 90 0 111 10 115
73 29z m236 45 c16 -11 19 -20 12 -27 -7 -7 -15 -6 -25 2 -22 18 -56 10 -79
-20 -17 -24 -18 -30 -5 -55 12 -25 19 -29 58 -30 64 -1 67 -3 46 -19 -33 -25
-84 -19 -117 14 -32 33 -36 58 -14 101 26 51 79 65 124 34z m271 -74 c0 -73
-3 -90 -15 -90 -12 0 -15 15 -15 71 0 60 -2 70 -14 60 -10 -8 -16 -9 -21 -1
-4 6 4 19 17 30 42 35 48 27 48 -70z m124 77 c29 -21 23 -64 -15 -103 l-33
-34 37 0 c26 0 37 -4 37 -15 0 -12 -14 -15 -65 -15 -79 0 -83 11 -20 63 46 39
58 73 29 84 -9 3 -26 1 -37 -6 -29 -19 -45 3 -16 23 28 19 59 21 83 3z m161
-12 c53 -52 19 -155 -50 -155 -49 0 -79 40 -72 100 9 76 73 105 122 55z m155
-15 l0 -40 45 0 45 0 0 40 c0 29 4 40 15 40 12 0 15 -17 15 -90 0 -73 -3 -90
-15 -90 -11 0 -15 11 -15 40 l0 40 -45 0 -45 0 0 -40 c0 -29 -4 -40 -15 -40
-12 0 -15 17 -15 90 0 73 3 90 15 90 11 0 15 -11 15 -40z m910 31 c0 -5 -7
-11 -15 -15 -8 -3 -15 -10 -15 -16 0 -5 7 -10 15 -10 8 0 15 -4 15 -10 0 -5
-7 -10 -15 -10 -12 0 -15 -13 -15 -55 0 -42 -3 -55 -15 -55 -11 0 -15 13 -15
54 0 34 -5 57 -12 60 -10 5 -10 7 0 12 6 3 12 14 12 23 0 10 3 21 7 24 10 10
53 8 53 -2z m188 -7 c23 -16 30 -48 12 -59 -6 -4 -5 -14 3 -28 6 -12 13 -23
14 -25 1 -2 11 6 23 18 15 15 30 20 46 17 16 -3 23 0 21 7 -2 6 -18 10 -36 10
-36 -2 -43 20 -8 30 56 15 77 -6 77 -78 l0 -53 -50 -2 c-41 0 -51 3 -61 20
l-11 21 -14 -21 c-13 -17 -26 -21 -75 -21 l-59 0 0 83 c0 46 3 87 7 90 12 13
89 7 111 -9z m212 -9 c0 -9 7 -18 15 -21 8 -4 15 -10 15 -15 0 -5 -7 -9 -15
-9 -25 0 -19 -65 8 -83 21 -14 21 -16 3 -23 -31 -12 -51 9 -54 57 -2 24 -9 47
-15 52 -9 7 -9 10 1 14 6 2 12 13 12 24 0 10 7 19 15 19 8 0 15 -7 15 -15z
m90 -5 c0 -11 7 -20 15 -20 8 0 15 -4 15 -10 0 -5 -7 -10 -15 -10 -11 0 -15
-11 -15 -39 0 -25 5 -41 15 -45 26 -9 16 -27 -12 -24 -26 3 -28 7 -31 53 -2
27 -9 53 -15 58 -9 7 -9 10 1 14 6 2 12 13 12 24 0 10 7 19 15 19 8 0 15 -9
15 -20z m6787 -27 c-3 -10 -5 -2 -5 17 0 19 2 27 5 18 2 -10 2 -26 0 -35z
m-9997 -3 c46 -46 12 -127 -50 -118 -26 4 -30 2 -30 -19 0 -14 -6 -23 -15 -23
-12 0 -15 16 -15 84 0 85 0 85 28 89 54 8 62 7 82 -13z m137 -2 c13 -12 23
-30 23 -40 0 -15 -8 -18 -50 -18 -51 0 -64 -11 -33 -29 10 -5 26 -5 40 0 26
10 44 -8 22 -22 -24 -15 -68 -10 -89 11 -29 29 -26 74 6 99 34 27 52 26 81 -1z
m113 8 c0 -8 -9 -18 -20 -21 -16 -5 -20 -15 -20 -56 0 -37 -4 -49 -15 -49 -12
0 -15 14 -15 64 0 63 1 65 28 69 15 2 30 5 35 6 4 0 7 -5 7 -13z m159 4 c10
-5 24 -23 31 -40 11 -28 11 -34 -7 -58 -41 -55 -123 -33 -123 33 0 58 51 91
99 65z m131 -3 c0 -7 -10 -17 -22 -22 -19 -8 -24 -19 -26 -57 -2 -34 -7 -48
-18 -48 -11 0 -14 15 -14 66 0 60 2 66 19 61 10 -2 25 -1 32 4 20 12 29 11 29
-4z m1503 2 c30 -16 37 -28 37 -65 0 -65 -82 -87 -123 -32 -18 24 -18 30 -7
58 20 47 51 60 93 39z m274 -5 c2 -5 -7 -14 -19 -19 -19 -8 -24 -19 -26 -57
-2 -34 -7 -48 -18 -48 -11 0 -14 15 -14 66 0 61 1 66 20 61 11 -3 23 -1 26 4
7 12 26 7 31 -7z m81 10 c31 -9 22 -30 -10 -26 -40 5 -42 -15 -4 -28 39 -13
51 -33 36 -61 -11 -20 -63 -26 -89 -10 -22 14 -4 33 20 21 13 -7 25 -8 37 -1
15 8 12 12 -21 26 -46 19 -55 39 -32 65 19 21 27 23 63 14z m210 -14 c28 -26
29 -80 3 -104 -28 -25 -79 -17 -104 16 -18 24 -18 30 -7 58 22 52 69 66 108
30z m747 -5 c40 -39 33 -55 -25 -55 -51 0 -64 -11 -33 -29 10 -5 26 -5 40 0
14 5 25 4 29 -3 18 -28 -68 -38 -98 -11 -24 22 -24 77 2 103 27 27 56 25 85
-5z m135 15 c5 0 18 -19 29 -42 l19 -43 18 43 c9 23 23 42 31 42 7 0 13 -4 13
-8 0 -9 -52 -132 -63 -149 -10 -15 -57 -17 -57 -3 0 6 6 10 14 10 27 0 28 20
5 75 -33 80 -79 72 -79 -12 0 -32 -4 -43 -15 -43 -12 0 -15 14 -15 66 0 60 2
66 19 61 10 -2 25 -1 32 4 8 5 20 7 27 4 8 -3 18 -5 22 -5z m-3720 -39 c0 -43
22 -74 45 -65 10 4 15 21 15 55 0 37 4 49 15 49 12 0 15 -14 15 -64 l0 -64
-42 0 c-23 -1 -48 4 -55 10 -15 12 -18 118 -3 118 6 0 10 -18 10 -39z m520
-26 c0 -51 -3 -65 -15 -65 -12 0 -15 14 -15 65 0 51 3 65 15 65 12 0 15 -14
15 -65z m1840 16 c0 -52 12 -65 43 -49 12 6 17 21 17 53 0 33 4 45 15 45 12 0
15 -14 15 -64 l0 -63 -47 -1 c-26 -1 -53 4 -60 10 -19 16 -18 118 2 118 11 0
15 -12 15 -49z m4320 39 c0 -5 -4 -10 -10 -10 -5 0 -10 5 -10 10 0 6 5 10 10
10 6 0 10 -4 10 -10z m3338 -4 c15 -8 36 -24 47 -36 18 -20 16 -20 -19 4 -21
14 -47 26 -58 26 -20 0 -45 -35 -80 -113 -16 -36 -31 -51 -60 -64 -22 -10 -33
-20 -27 -24 8 -5 8 -8 0 -13 -6 -4 -9 -12 -6 -17 8 -12 -38 -29 -63 -22 -16 4
-21 -1 -27 -26 -3 -16 -1 -39 5 -50 10 -20 14 -18 98 38 104 69 112 74 112 67
0 -3 -52 -40 -116 -82 -95 -61 -122 -74 -142 -69 -19 5 -22 9 -13 15 8 4 11
15 7 25 -5 14 -9 15 -21 5 -17 -14 -21 0 -4 17 15 15 3 34 -16 26 -10 -3 -15
1 -15 15 0 14 22 34 69 66 81 53 84 57 91 116 3 28 10 44 18 43 7 -2 12 1 12
6 0 5 10 12 23 16 l22 7 -25 8 c-25 8 -25 8 5 10 17 1 39 5 50 10 31 14 103
11 133 -4z m269 -58 c-3 -7 -5 -2 -5 12 0 14 2 19 5 13 2 -7 2 -19 0 -25z
m-8297 12 c0 -5 -16 -10 -35 -10 -19 0 -35 5 -35 10 0 6 16 10 35 10 19 0 35
-4 35 -10z m5117 -108 c-2 -26 -7 -56 -10 -67 -24 -79 -45 -168 -50 -210 -7
-58 -28 -175 -36 -202 -1 -2 -2 -6 -2 -10 -1 -5 -5 -17 -9 -29 -16 -40 -23
-204 -10 -219 7 -9 8 -15 2 -15 -14 0 -21 -59 -11 -93 15 -51 -8 -18 -25 38
-20 63 -16 136 14 247 15 53 16 75 8 104 -9 34 -7 39 16 58 21 18 27 35 36
104 6 46 21 118 32 160 12 42 23 108 26 147 3 53 6 65 14 51 5 -9 8 -39 5 -64z
m3311 43 c-3 -3 -9 2 -12 12 -6 14 -5 15 5 6 7 -7 10 -15 7 -18z m-408 -20
c13 -14 21 -25 18 -25 -2 0 -15 11 -28 25 -13 14 -21 25 -18 25 2 0 15 -11 28
-25z m96 -17 c-8 -50 -35 -92 -62 -96 -15 -2 -14 2 8 20 27 23 44 68 39 101
-1 9 3 17 10 17 8 0 10 -13 5 -42z m305 5 c13 -16 12 -17 -3 -4 -10 7 -18 15
-18 17 0 8 8 3 21 -13z m-344 -19 c-3 -3 -12 -4 -19 -1 -8 3 -5 6 6 6 11 1 17
-2 13 -5z m324 -21 c13 -16 12 -17 -3 -4 -10 7 -18 15 -18 17 0 8 8 3 21 -13z
m-3549 -105 c-7 -7 -12 -8 -12 -2 0 14 12 26 19 19 2 -3 -1 -11 -7 -17z m55
-27 c10 9 7 -3 -8 -34 -13 -26 -24 -45 -26 -43 -4 3 -6 63 -4 86 1 12 4 11 12
-3 9 -15 13 -16 26 -6z m33 -121 c0 -5 -4 -10 -9 -10 -6 0 -13 5 -16 10 -3 6
1 10 9 10 9 0 16 -4 16 -10z m-10 -36 c0 -20 -7 -17 -20 6 -9 16 -8 18 5 14 8
-4 15 -12 15 -20z m-6344 -598 c29 -22 7 -39 -32 -24 -17 6 -38 8 -48 5 -25
-10 -19 -36 12 -43 61 -15 82 -32 82 -70 0 -31 -4 -37 -34 -49 -29 -12 -42
-13 -73 -2 -40 13 -55 45 -18 39 11 -2 34 -6 51 -9 63 -10 52 40 -11 51 -46 9
-71 45 -54 78 7 13 17 26 23 30 19 13 81 9 102 -6z m72 -29 c3 -37 4 -37 48
-37 l44 0 0 40 c0 33 3 40 20 40 19 0 20 -7 20 -100 0 -93 -1 -100 -20 -100
-17 0 -20 7 -20 40 l0 40 -45 0 -45 0 0 -40 c0 -33 -3 -40 -20 -40 -19 0 -20
7 -20 101 0 90 2 100 18 97 12 -2 18 -14 20 -41z m323 12 c53 -57 29 -148 -44
-167 -82 -22 -154 57 -123 133 18 43 52 65 99 65 31 0 45 -7 68 -31z m184 6
c48 -47 20 -98 -59 -110 -42 -7 -46 -10 -46 -36 0 -19 -5 -29 -15 -29 -12 0
-15 18 -15 100 l0 100 55 0 c46 0 60 -4 80 -25z m190 -42 l50 -66 3 67 c2 57
6 67 20 64 14 -3 17 -18 20 -101 3 -91 1 -97 -17 -97 -13 0 -38 23 -68 63
l-48 62 -3 -62 c-3 -55 -6 -63 -22 -63 -19 0 -20 7 -20 100 0 89 2 100 18 100
9 0 39 -30 67 -67z m266 57 c25 -14 49 -62 49 -97 0 -57 -64 -107 -122 -96
-44 8 -83 57 -83 104 0 34 6 46 33 70 34 31 85 39 123 19z m104 -50 c10 -33
21 -60 25 -60 4 0 15 27 25 60 15 51 22 60 38 58 15 -2 26 -20 42 -67 12 -36
24 -61 27 -55 3 5 13 35 22 67 13 46 21 57 37 57 13 0 19 -5 16 -12 -2 -7 -17
-52 -33 -100 -36 -114 -53 -117 -87 -15 l-24 72 -23 -72 c-34 -103 -50 -99
-89 20 -36 108 -36 107 -13 107 14 0 23 -15 37 -60z m5345 -11 c0 -18 -10 -8
-25 24 l-16 32 21 -24 c11 -13 20 -27 20 -32z m3590 21 c18 -12 2 -12 -25 0
-13 6 -15 9 -5 9 8 0 22 -4 30 -9z m107 -42 c57 -32 156 -80 314 -153 230
-106 438 -217 483 -256 35 -31 53 -39 113 -48 114 -18 303 -97 288 -121 -3 -5
0 -7 7 -5 12 5 110 -63 143 -97 18 -19 -49 25 -77 50 -14 13 -31 21 -37 17 -7
-3 -11 -3 -10 2 5 28 -4 22 -25 -17 -16 -31 -31 -46 -47 -48 -13 -2 -21 -1
-17 3 11 11 -12 47 -26 42 -14 -6 -40 7 -42 20 -3 26 -19 44 -35 40 -11 -3
-22 -1 -25 4 -3 5 -10 7 -15 4 -5 -4 -9 -1 -9 6 0 7 -2 10 -5 7 -4 -3 3 -22
15 -42 21 -39 27 -76 10 -76 -5 0 -14 9 -20 21 -19 34 -51 68 -64 65 -6 -2 -8
-1 -3 1 4 3 7 9 7 13 0 15 -47 60 -61 59 -8 0 -5 -4 6 -9 13 -5 -10 -7 -60 -6
-44 2 -87 -1 -95 -7 -11 -6 -31 -4 -63 7 -61 20 -75 20 -120 -3 -20 -10 -37
-15 -37 -10 0 5 4 9 9 9 5 0 16 6 23 13 20 21 98 38 98 22 0 -17 74 -24 119
-12 45 12 23 27 -39 27 -25 0 -52 5 -60 10 -18 12 -14 12 72 14 90 2 88 20 -2
23 -44 2 -70 -1 -70 -8 0 -7 -11 -8 -30 -4 -17 4 -36 2 -43 -3 -12 -11 -39
-10 -87 3 -14 4 -45 9 -70 12 -40 6 -42 7 -19 14 15 3 46 2 70 -3 24 -5 58
-11 74 -14 26 -3 27 -3 10 6 -15 8 -6 9 37 5 53 -5 82 5 58 20 -10 6 -103 10
-125 5 -5 -1 -44 -3 -87 -3 -79 -2 -103 -11 -78 -28 13 -9 13 -10 0 -6 -8 2
-15 15 -15 28 0 20 -6 25 -32 27 -18 2 -33 7 -33 13 0 5 5 9 10 9 6 0 10 5 10
10 0 6 -9 10 -20 10 -28 0 -25 20 3 21 17 1 14 4 -13 13 -19 6 -40 14 -47 19
-6 4 -18 4 -27 1 -11 -4 -16 0 -16 13 0 10 -9 24 -21 31 -20 13 -20 14 -2 27
12 10 14 14 4 15 -17 0 -57 51 -53 67 2 7 -5 13 -15 14 -10 0 -13 3 -7 5 13 5
-67 89 -111 115 -42 26 -14 24 32 -3z m-3568 -4 c31 -6 31 -7 16 -30 -9 -14
-11 -24 -5 -24 6 0 8 -5 5 -10 -4 -6 -12 -8 -18 -4 -7 3 -5 -1 4 -8 13 -10 16
-30 15 -81 0 -37 3 -67 7 -67 5 0 5 -5 2 -10 -4 -6 -1 -17 5 -25 8 -10 8 -20
2 -32 -8 -14 -15 1 -36 72 -71 239 -71 233 3 219z m158 -336 c-3 -8 -6 -5 -6
6 -1 11 2 17 5 13 3 -3 4 -12 1 -19z m3533 -42 c0 -18 -17 8 -24 34 l-7 25 15
-25 c9 -14 15 -29 16 -34z m14 -32 c3 -8 2 -12 -4 -9 -6 3 -10 10 -10 16 0 14
7 11 14 -7z m183 10 c-3 -3 -12 -4 -19 -1 -8 3 -5 6 6 6 11 1 17 -2 13 -5z
m-149 -164 c-1 -23 -26 82 -26 110 0 14 6 -2 14 -35 7 -33 13 -67 12 -75z
m330 77 c1 -4 0 -7 -3 -7 -3 0 -14 0 -26 0 -11 0 -18 4 -15 8 6 10 40 9 44 -1z
m-68 -7 c-20 -13 -40 -13 -40 0 0 6 12 10 28 10 21 0 24 -2 12 -10z m460 -49
c0 -5 -7 -12 -16 -15 -14 -5 -15 -4 -4 9 14 17 20 19 20 6z m-4134 -45 c-3
-14 -1 -28 5 -31 7 -5 4 -14 -7 -27 -16 -16 -16 -21 -4 -28 9 -6 10 -10 3 -10
-6 0 -15 5 -18 10 -3 6 -11 10 -17 10 -6 0 -3 -9 7 -20 10 -12 24 -19 31 -16
8 3 12 -3 11 -14 -1 -14 -5 -16 -13 -9 -8 7 -13 6 -16 -2 -3 -8 -11 -10 -22
-6 -27 11 -16 125 15 150 28 23 32 22 25 -7z m4119 4 c-26 -11 -48 -12 -41 -2
2 4 17 8 33 9 24 1 25 0 8 -7z m-665 -172 c11 -64 19 -125 19 -135 -2 -29 -28
108 -44 232 -10 75 4 20 25 -97z m1199 46 c14 -12 -19 -1 -35 12 -18 14 -18
14 6 3 14 -6 27 -13 29 -15z m129 -21 c-15 -2 -42 -2 -60 0 -18 2 -6 4 27 4
33 0 48 -2 33 -4z m72 -13 c8 -5 11 -10 5 -10 -5 0 -17 5 -25 10 -8 5 -10 10
-5 10 6 0 17 -5 25 -10z m110 -56 c0 -2 -9 0 -20 6 -11 6 -20 13 -20 16 0 2 9
0 20 -6 11 -6 20 -13 20 -16z m-1483 -146 c-3 -7 -5 -2 -5 12 0 14 2 19 5 13
2 -7 2 -19 0 -25z m20 -115 c-3 -10 -5 -4 -5 12 0 17 2 24 5 18 2 -7 2 -21 0
-30z m23 -73 c5 0 11 6 13 13 4 9 6 9 6 0 1 -6 -3 -15 -9 -18 -5 -3 -10 -25
-10 -47 0 -61 -7 -43 -12 32 -3 36 -3 55 -1 43 2 -13 8 -23 13 -23z m20 -143
c0 -18 -2 -19 -10 -7 -13 20 -13 43 0 35 6 -3 10 -16 10 -28z m7 -49 c-3 -8
-6 -5 -6 6 -1 11 2 17 5 13 3 -3 4 -12 1 -19z m-2867 -300 c0 -23 -8 -23 -28
0 -10 10 -13 12 -9 5 9 -13 1 -33 -13 -33 -5 0 -11 8 -13 18 -4 13 -5 12 -6
-5 -1 -16 -6 -20 -20 -16 -13 3 -30 -5 -48 -23 -21 -21 -38 -28 -73 -30 -25
-1 -49 2 -55 6 -5 5 -19 10 -30 12 -11 1 -26 8 -33 15 -7 7 -20 10 -30 7 -9
-3 8 8 38 24 30 15 57 25 60 22 3 -4 18 -6 35 -6 22 1 31 7 36 26 7 24 7 24 8
3 1 -16 7 -23 21 -23 11 0 20 6 20 14 0 8 4 18 10 21 6 3 7 -1 4 -9 -7 -19 0
-20 29 -4 12 7 32 11 45 9 15 -2 22 3 22 16 1 14 4 13 15 -7 8 -14 14 -33 15
-42z m-153 30 c-3 -8 -6 -5 -6 6 -1 11 2 17 5 13 3 -3 4 -12 1 -19z"/>
<path d="M1480 4610 l0 -60 58 0 c69 0 102 19 102 59 0 44 -27 61 -98 61 l-62
0 0 -60z"/>
<path d="M2203 4548 c-18 -51 -31 -93 -29 -95 1 -2 31 7 65 18 50 17 61 25 56
38 -4 9 -16 42 -27 74 -11 31 -23 57 -26 57 -4 0 -21 -42 -39 -92z"/>
<path d="M3018 4571 c-16 -37 -28 -70 -28 -74 0 -4 27 -7 60 -7 33 0 60 2 60
4 0 7 -53 130 -59 138 -3 4 -18 -24 -33 -61z"/>
<path d="M2642 4218 c-7 -7 -12 -39 -12 -75 l0 -63 34 0 c50 0 81 29 81 78 0
22 -7 47 -14 56 -16 19 -72 21 -89 4z"/>
<path d="M2811 4204 c-24 -30 -26 -55 -10 -87 15 -28 28 -37 57 -37 55 0 83
84 42 128 -28 30 -64 28 -89 -4z"/>
<path d="M3007 4156 c-13 -38 -13 -46 -2 -46 44 0 55 25 31 69 -13 23 -13 23
-29 -23z"/>
<path d="M978 3487 c-10 -23 -18 -46 -18 -50 0 -4 18 -7 40 -7 22 0 40 2 40 4
0 7 -39 96 -42 96 -2 0 -11 -19 -20 -43z"/>
<path d="M1320 3520 l0 -40 44 0 c59 0 76 8 76 34 0 34 -19 46 -72 46 l-48 0
0 -40z"/>
<path d="M3163 3480 l-21 -50 44 0 c24 0 44 2 44 4 0 6 -41 96 -43 96 -2 0
-13 -22 -24 -50z"/>
<path d="M3652 3488 c-27 -34 -21 -88 12 -110 56 -38 118 60 68 105 -22 20
-65 22 -80 5z"/>
<path d="M1738 3489 c-32 -18 -19 -29 32 -29 51 0 60 6 38 28 -15 15 -47 15
-70 1z"/>
<path d="M3997 3482 c-26 -29 -22 -78 9 -98 55 -37 116 25 83 84 -19 34 -67
42 -92 14z"/>
<path d="M4816 3478 c-9 -12 -16 -33 -16 -45 0 -28 33 -63 60 -63 27 0 60 35
60 63 0 36 -27 67 -60 67 -18 0 -34 -8 -44 -22z"/>
<path d="M5068 3489 c-32 -18 -19 -29 32 -29 51 0 60 6 38 28 -15 15 -47 15
-70 1z"/>
<path d="M5538 3489 c-32 -18 -19 -29 32 -29 51 0 60 6 38 28 -15 15 -47 15
-70 1z"/>
<path d="M6205 3480 c-18 -20 -17 -20 40 -20 57 0 58 0 40 20 -10 11 -28 20
-40 20 -12 0 -30 -9 -40 -20z"/>
<path d="M1937 3033 c-2 -10 -8 -26 -12 -35 -6 -15 -2 -18 20 -18 25 0 27 3
20 28 -9 36 -21 48 -28 25z"/>
<path d="M2836 3048 c-9 -12 -16 -32 -16 -43 0 -58 66 -75 84 -22 22 62 -33
115 -68 65z"/>
<path d="M4080 3050 c0 -18 5 -21 38 -18 25 2 37 8 37 18 0 10 -12 16 -37 18
-33 3 -38 0 -38 -18z"/>
<path d="M4080 2975 c0 -24 3 -26 38 -23 29 2 37 7 37 23 0 16 -8 21 -37 23
-35 3 -38 1 -38 -23z"/>
<path d="M4237 2973 c-11 -10 -8 -20 8 -27 21 -8 45 3 45 20 0 14 -41 20 -53
7z"/>
<path d="M1193 3023 c-19 -7 -16 -60 4 -72 24 -13 53 4 53 32 0 37 -24 54 -57
40z"/>
<path d="M1330 3015 c-11 -13 -7 -15 24 -15 37 0 48 13 20 24 -23 9 -30 8 -44
-9z"/>
<path d="M1612 3018 c-19 -19 -14 -56 8 -68 40 -22 74 46 36 72 -16 11 -30 10
-44 -4z"/>
<path d="M3246 3014 c-21 -20 -20 -30 4 -54 16 -16 25 -18 40 -10 22 12 27 49
8 68 -16 16 -33 15 -52 -4z"/>
<path d="M3796 3014 c-21 -20 -20 -30 4 -54 16 -16 25 -18 40 -10 22 12 27 49
8 68 -16 16 -33 15 -52 -4z"/>
<path d="M4553 3023 c-26 -10 -12 -23 23 -23 31 0 35 2 24 15 -13 15 -25 17
-47 8z"/>
<path d="M10730 2771 c0 -6 4 -13 10 -16 6 -3 7 1 4 9 -7 18 -14 21 -14 7z"/>
<path d="M1885 1925 c-30 -30 -31 -54 -4 -89 40 -51 109 -23 109 44 0 66 -59
92 -105 45z"/>
<path d="M2080 1911 c0 -28 3 -31 33 -31 41 0 60 12 55 36 -2 14 -13 20 -46
22 -41 3 -42 2 -42 -27z"/>
<path d="M2545 1925 c-30 -30 -31 -54 -4 -89 40 -51 109 -23 109 44 0 66 -59
92 -105 45z"/>
<path d="M11978 1633 c7 -3 16 -2 19 1 4 3 -2 6 -13 5 -11 0 -14 -3 -6 -6z"/>
<path d="M12104 1625 c11 -8 38 -15 60 -15 51 1 30 15 -34 24 -41 5 -43 5 -26
-9z"/>
<path d="M12630 1401 c0 -8 -7 -11 -15 -7 -8 3 -15 1 -15 -4 0 -6 6 -10 14
-10 17 0 31 18 22 27 -3 4 -6 1 -6 -6z"/>
</g>
</svg>
